FILE "C:\MYDATA.ISO" BINARY
  TRACK 01 MODE1/2048
    INDEX 01 00:00:00
  POSTGAP 00:02:00
FILE "C:\MYAUDIO.WAV" WAVE
  TRACK 02 AUDIO
  PREGAP 00:02:00
    INDEX 01 00:00:00
  TRACK 03 AUDIO
    INDEX 01 05:50:65
  TRACK 04 AUDIO
    INDEX 01 09:47:50